<mxfile host="Electron" modified="2023-08-07T19:02:08.830Z" agent="Mozilla/5.0 (Windows NT 10.0; Win64; x64) AppleWebKit/537.36 (KHTML, like Gecko) draw.io/21.6.5 Chrome/114.0.5735.243 Electron/25.3.1 Safari/537.36" etag="Us8gBdUlpm-VXqzjmjUg" version="21.6.5" type="device">
  <diagram name="Seite-1" id="TccW4hiwPZpijfNV2Fuw">
    <mxGraphModel dx="1884" dy="1102" grid="1" gridSize="10" guides="1" tooltips="1" connect="1" arrows="1" fold="1" page="1" pageScale="1" pageWidth="827" pageHeight="1169" math="0" shadow="0">
      <root>
        <mxCell id="0" />
        <mxCell id="1" parent="0" />
        <mxCell id="H2MpeG37R6bw6gH1CRkN-14" value="" style="endArrow=none;html=1;rounded=0;" parent="1" source="H2MpeG37R6bw6gH1CRkN-22" target="H2MpeG37R6bw6gH1CRkN-18" edge="1">
          <mxGeometry width="50" height="50" relative="1" as="geometry">
            <mxPoint x="290" y="300" as="sourcePoint" />
            <mxPoint x="170" y="140" as="targetPoint" />
          </mxGeometry>
        </mxCell>
        <mxCell id="H2MpeG37R6bw6gH1CRkN-15" value="" style="endArrow=none;html=1;rounded=0;" parent="1" source="H2MpeG37R6bw6gH1CRkN-21" target="H2MpeG37R6bw6gH1CRkN-20" edge="1">
          <mxGeometry width="50" height="50" relative="1" as="geometry">
            <mxPoint x="290" y="140" as="sourcePoint" />
            <mxPoint x="170" y="300" as="targetPoint" />
          </mxGeometry>
        </mxCell>
        <mxCell id="H2MpeG37R6bw6gH1CRkN-17" value="" style="endArrow=none;html=1;rounded=0;entryX=1;entryY=0.5;entryDx=0;entryDy=0;" parent="1" source="H2MpeG37R6bw6gH1CRkN-23" target="H2MpeG37R6bw6gH1CRkN-19" edge="1">
          <mxGeometry width="50" height="50" relative="1" as="geometry">
            <mxPoint x="330" y="220" as="sourcePoint" />
            <mxPoint x="130" y="220" as="targetPoint" />
          </mxGeometry>
        </mxCell>
        <mxCell id="H2MpeG37R6bw6gH1CRkN-18" value="&lt;font style=&quot;font-size: 39px;&quot;&gt;-&lt;/font&gt;" style="ellipse;whiteSpace=wrap;html=1;" parent="1" vertex="1">
          <mxGeometry x="150" y="100" width="40" height="40" as="geometry" />
        </mxCell>
        <mxCell id="H2MpeG37R6bw6gH1CRkN-19" value="&lt;font style=&quot;font-size: 39px;&quot;&gt;+&lt;/font&gt;" style="ellipse;whiteSpace=wrap;html=1;" parent="1" vertex="1">
          <mxGeometry x="80" y="200" width="40" height="40" as="geometry" />
        </mxCell>
        <mxCell id="H2MpeG37R6bw6gH1CRkN-20" value="&lt;font style=&quot;font-size: 39px;&quot;&gt;-&lt;/font&gt;" style="ellipse;whiteSpace=wrap;html=1;" parent="1" vertex="1">
          <mxGeometry x="150" y="300" width="40" height="40" as="geometry" />
        </mxCell>
        <mxCell id="H2MpeG37R6bw6gH1CRkN-21" value="&lt;font style=&quot;font-size: 39px;&quot;&gt;+&lt;/font&gt;" style="ellipse;whiteSpace=wrap;html=1;" parent="1" vertex="1">
          <mxGeometry x="270" y="100" width="40" height="40" as="geometry" />
        </mxCell>
        <mxCell id="H2MpeG37R6bw6gH1CRkN-22" value="&lt;font style=&quot;font-size: 39px;&quot;&gt;+&lt;/font&gt;" style="ellipse;whiteSpace=wrap;html=1;" parent="1" vertex="1">
          <mxGeometry x="270" y="300" width="40" height="40" as="geometry" />
        </mxCell>
        <mxCell id="H2MpeG37R6bw6gH1CRkN-24" value="" style="endArrow=none;html=1;rounded=0;" parent="1" target="H2MpeG37R6bw6gH1CRkN-23" edge="1">
          <mxGeometry width="50" height="50" relative="1" as="geometry">
            <mxPoint x="330" y="220" as="sourcePoint" />
            <mxPoint x="130" y="220" as="targetPoint" />
          </mxGeometry>
        </mxCell>
        <mxCell id="H2MpeG37R6bw6gH1CRkN-23" value="&lt;font style=&quot;font-size: 39px;&quot;&gt;-&lt;/font&gt;" style="ellipse;whiteSpace=wrap;html=1;" parent="1" vertex="1">
          <mxGeometry x="340" y="200" width="40" height="40" as="geometry" />
        </mxCell>
        <mxCell id="H2MpeG37R6bw6gH1CRkN-25" value="" style="endArrow=none;html=1;rounded=0;" parent="1" source="H2MpeG37R6bw6gH1CRkN-32" target="H2MpeG37R6bw6gH1CRkN-28" edge="1">
          <mxGeometry width="50" height="50" relative="1" as="geometry">
            <mxPoint x="679" y="300" as="sourcePoint" />
            <mxPoint x="559" y="140" as="targetPoint" />
          </mxGeometry>
        </mxCell>
        <mxCell id="H2MpeG37R6bw6gH1CRkN-26" value="" style="endArrow=none;html=1;rounded=0;" parent="1" source="H2MpeG37R6bw6gH1CRkN-31" target="H2MpeG37R6bw6gH1CRkN-30" edge="1">
          <mxGeometry width="50" height="50" relative="1" as="geometry">
            <mxPoint x="679" y="140" as="sourcePoint" />
            <mxPoint x="559" y="300" as="targetPoint" />
          </mxGeometry>
        </mxCell>
        <mxCell id="H2MpeG37R6bw6gH1CRkN-27" value="" style="endArrow=none;html=1;rounded=0;entryX=1;entryY=0.5;entryDx=0;entryDy=0;" parent="1" source="H2MpeG37R6bw6gH1CRkN-34" target="H2MpeG37R6bw6gH1CRkN-29" edge="1">
          <mxGeometry width="50" height="50" relative="1" as="geometry">
            <mxPoint x="719" y="220" as="sourcePoint" />
            <mxPoint x="519" y="220" as="targetPoint" />
          </mxGeometry>
        </mxCell>
        <mxCell id="H2MpeG37R6bw6gH1CRkN-28" value="&lt;font style=&quot;font-size: 39px;&quot;&gt;-&lt;/font&gt;" style="ellipse;whiteSpace=wrap;html=1;" parent="1" vertex="1">
          <mxGeometry x="519" y="130" width="40" height="40" as="geometry" />
        </mxCell>
        <mxCell id="H2MpeG37R6bw6gH1CRkN-29" value="&lt;font style=&quot;font-size: 39px;&quot;&gt;+&lt;/font&gt;" style="ellipse;whiteSpace=wrap;html=1;" parent="1" vertex="1">
          <mxGeometry x="469" y="200" width="40" height="40" as="geometry" />
        </mxCell>
        <mxCell id="H2MpeG37R6bw6gH1CRkN-30" value="&lt;font style=&quot;font-size: 39px;&quot;&gt;-&lt;/font&gt;" style="ellipse;whiteSpace=wrap;html=1;" parent="1" vertex="1">
          <mxGeometry x="519" y="270" width="40" height="40" as="geometry" />
        </mxCell>
        <mxCell id="H2MpeG37R6bw6gH1CRkN-31" value="&lt;font style=&quot;font-size: 39px;&quot;&gt;+&lt;/font&gt;" style="ellipse;whiteSpace=wrap;html=1;" parent="1" vertex="1">
          <mxGeometry x="679" y="130" width="40" height="40" as="geometry" />
        </mxCell>
        <mxCell id="H2MpeG37R6bw6gH1CRkN-32" value="&lt;font style=&quot;font-size: 39px;&quot;&gt;+&lt;/font&gt;" style="ellipse;whiteSpace=wrap;html=1;" parent="1" vertex="1">
          <mxGeometry x="679" y="270" width="40" height="40" as="geometry" />
        </mxCell>
        <mxCell id="H2MpeG37R6bw6gH1CRkN-33" value="" style="endArrow=none;html=1;rounded=0;" parent="1" target="H2MpeG37R6bw6gH1CRkN-34" edge="1">
          <mxGeometry width="50" height="50" relative="1" as="geometry">
            <mxPoint x="719" y="220" as="sourcePoint" />
            <mxPoint x="519" y="220" as="targetPoint" />
          </mxGeometry>
        </mxCell>
        <mxCell id="H2MpeG37R6bw6gH1CRkN-34" value="&lt;font style=&quot;font-size: 39px;&quot;&gt;-&lt;/font&gt;" style="ellipse;whiteSpace=wrap;html=1;" parent="1" vertex="1">
          <mxGeometry x="729" y="200" width="40" height="40" as="geometry" />
        </mxCell>
        <mxCell id="H2MpeG37R6bw6gH1CRkN-37" value="" style="endArrow=none;html=1;rounded=0;" parent="1" edge="1">
          <mxGeometry width="50" height="50" relative="1" as="geometry">
            <mxPoint x="469" y="120" as="sourcePoint" />
            <mxPoint x="769" y="120" as="targetPoint" />
          </mxGeometry>
        </mxCell>
        <mxCell id="H2MpeG37R6bw6gH1CRkN-38" value="" style="endArrow=none;html=1;rounded=0;" parent="1" edge="1">
          <mxGeometry width="50" height="50" relative="1" as="geometry">
            <mxPoint x="469" y="319.63" as="sourcePoint" />
            <mxPoint x="769" y="319.63" as="targetPoint" />
          </mxGeometry>
        </mxCell>
        <mxCell id="H2MpeG37R6bw6gH1CRkN-40" value="" style="triangle;whiteSpace=wrap;html=1;direction=south;fillColor=#000000;" parent="1" vertex="1">
          <mxGeometry x="549" y="90" width="40" height="30" as="geometry" />
        </mxCell>
        <mxCell id="H2MpeG37R6bw6gH1CRkN-41" value="" style="triangle;whiteSpace=wrap;html=1;direction=south;fillColor=#000000;" parent="1" vertex="1">
          <mxGeometry x="649" y="90" width="40" height="30" as="geometry" />
        </mxCell>
        <mxCell id="H2MpeG37R6bw6gH1CRkN-42" value="" style="triangle;whiteSpace=wrap;html=1;direction=north;fillColor=#000000;" parent="1" vertex="1">
          <mxGeometry x="549" y="320" width="40" height="30" as="geometry" />
        </mxCell>
        <mxCell id="H2MpeG37R6bw6gH1CRkN-43" value="" style="triangle;whiteSpace=wrap;html=1;direction=north;fillColor=#000000;" parent="1" vertex="1">
          <mxGeometry x="649" y="320" width="40" height="30" as="geometry" />
        </mxCell>
        <mxCell id="H2MpeG37R6bw6gH1CRkN-45" value="&lt;font style=&quot;font-size: 32px;&quot;&gt;b&lt;/font&gt;" style="text;html=1;strokeColor=none;fillColor=none;align=center;verticalAlign=middle;whiteSpace=wrap;rounded=0;" parent="1" vertex="1">
          <mxGeometry x="429" y="320" width="40" height="40" as="geometry" />
        </mxCell>
        <mxCell id="H2MpeG37R6bw6gH1CRkN-47" value="&lt;font style=&quot;font-size: 32px;&quot;&gt;a&lt;/font&gt;" style="text;html=1;strokeColor=none;fillColor=none;align=center;verticalAlign=middle;whiteSpace=wrap;rounded=0;" parent="1" vertex="1">
          <mxGeometry x="40" y="320" width="40" height="40" as="geometry" />
        </mxCell>
        <mxCell id="vQO8Fa0tWsfRLP2sTiy0-2" value="&lt;font style=&quot;font-size: 44px;&quot;&gt;Â±&lt;/font&gt;" style="text;html=1;strokeColor=none;fillColor=none;align=center;verticalAlign=middle;whiteSpace=wrap;rounded=0;" vertex="1" parent="1">
          <mxGeometry x="210" y="194" width="40" height="40" as="geometry" />
        </mxCell>
        <mxCell id="vQO8Fa0tWsfRLP2sTiy0-3" value="&lt;font style=&quot;font-size: 44px;&quot;&gt;-&lt;/font&gt;" style="text;html=1;strokeColor=none;fillColor=none;align=center;verticalAlign=middle;whiteSpace=wrap;rounded=0;" vertex="1" parent="1">
          <mxGeometry x="546" y="197" width="40" height="40" as="geometry" />
        </mxCell>
        <mxCell id="vQO8Fa0tWsfRLP2sTiy0-4" value="&lt;font style=&quot;font-size: 44px;&quot;&gt;+&lt;/font&gt;" style="text;html=1;strokeColor=none;fillColor=none;align=center;verticalAlign=middle;whiteSpace=wrap;rounded=0;" vertex="1" parent="1">
          <mxGeometry x="653" y="201" width="40" height="40" as="geometry" />
        </mxCell>
        <mxCell id="vQO8Fa0tWsfRLP2sTiy0-327" value="&lt;font style=&quot;font-size: 32px;&quot;&gt;c&lt;/font&gt;" style="text;html=1;strokeColor=none;fillColor=none;align=center;verticalAlign=middle;whiteSpace=wrap;rounded=0;container=0;" vertex="1" parent="1">
          <mxGeometry x="831" y="320.37" width="40" height="40" as="geometry" />
        </mxCell>
        <mxCell id="vQO8Fa0tWsfRLP2sTiy0-335" value="" style="group" vertex="1" connectable="0" parent="1">
          <mxGeometry x="857.2920134859289" y="89.17" width="336.1352502047257" height="261.2" as="geometry" />
        </mxCell>
        <mxCell id="vQO8Fa0tWsfRLP2sTiy0-328" value="&lt;font style=&quot;font-size: 44px;&quot;&gt;+&lt;/font&gt;" style="text;html=1;strokeColor=none;fillColor=none;align=center;verticalAlign=middle;whiteSpace=wrap;rounded=0;container=0;" vertex="1" parent="vQO8Fa0tWsfRLP2sTiy0-335">
          <mxGeometry x="324.05999999999995" y="124.79031112620517" width="12.075250204725668" height="12.075243863323339" as="geometry" />
        </mxCell>
        <mxCell id="vQO8Fa0tWsfRLP2sTiy0-330" value="&lt;font style=&quot;font-size: 44px;&quot;&gt;+&lt;/font&gt;" style="text;html=1;strokeColor=none;fillColor=none;align=center;verticalAlign=middle;whiteSpace=wrap;rounded=0;container=0;" vertex="1" parent="vQO8Fa0tWsfRLP2sTiy0-335">
          <mxGeometry x="324.05999999999995" y="191.79031112620515" width="12.075250204725668" height="12.075243863323339" as="geometry" />
        </mxCell>
        <mxCell id="vQO8Fa0tWsfRLP2sTiy0-331" value="&lt;span style=&quot;font-size: 44px;&quot;&gt;-&lt;/span&gt;" style="text;html=1;strokeColor=none;fillColor=none;align=center;verticalAlign=middle;whiteSpace=wrap;rounded=0;container=0;" vertex="1" parent="vQO8Fa0tWsfRLP2sTiy0-335">
          <mxGeometry y="58.13031112620517" height="12.075243863323339" as="geometry" />
        </mxCell>
        <mxCell id="vQO8Fa0tWsfRLP2sTiy0-332" value="&lt;font style=&quot;font-size: 44px;&quot;&gt;-&lt;/font&gt;" style="text;html=1;strokeColor=none;fillColor=none;align=center;verticalAlign=middle;whiteSpace=wrap;rounded=0;container=0;" vertex="1" parent="vQO8Fa0tWsfRLP2sTiy0-335">
          <mxGeometry x="0.05999999999994543" y="124.79031112620517" height="12.075243863323339" as="geometry" />
        </mxCell>
        <mxCell id="vQO8Fa0tWsfRLP2sTiy0-333" value="&lt;font style=&quot;font-size: 44px;&quot;&gt;-&lt;/font&gt;" style="text;html=1;strokeColor=none;fillColor=none;align=center;verticalAlign=middle;whiteSpace=wrap;rounded=0;container=0;" vertex="1" parent="vQO8Fa0tWsfRLP2sTiy0-335">
          <mxGeometry x="0.05999999999994543" y="191.79031112620515" height="12.075243863323339" as="geometry" />
        </mxCell>
        <mxCell id="vQO8Fa0tWsfRLP2sTiy0-174" value="" style="endArrow=none;html=1;rounded=0;strokeWidth=5;" edge="1" parent="vQO8Fa0tWsfRLP2sTiy0-335">
          <mxGeometry width="50" height="50" relative="1" as="geometry">
            <mxPoint x="13.70798651407108" y="230.82999999999998" as="sourcePoint" />
            <mxPoint x="13.70798651407108" y="30.83" as="targetPoint" />
          </mxGeometry>
        </mxCell>
        <mxCell id="vQO8Fa0tWsfRLP2sTiy0-18" value="" style="ellipse;whiteSpace=wrap;html=1;fillColor=none;container=0;" vertex="1" parent="vQO8Fa0tWsfRLP2sTiy0-335">
          <mxGeometry x="13.70798651407108" y="30.83" width="100.00000000000001" height="66.66666666666667" as="geometry" />
        </mxCell>
        <mxCell id="vQO8Fa0tWsfRLP2sTiy0-8" value="&lt;font style=&quot;font-size: 12px;&quot;&gt;-&lt;/font&gt;" style="ellipse;whiteSpace=wrap;html=1;container=0;" vertex="1" parent="vQO8Fa0tWsfRLP2sTiy0-335">
          <mxGeometry x="33.607911814168915" y="36.240086602139584" width="12.075250204725668" height="12.075243863323339" as="geometry" />
        </mxCell>
        <mxCell id="vQO8Fa0tWsfRLP2sTiy0-9" value="&lt;font style=&quot;font-size: 12px;&quot;&gt;+&lt;/font&gt;" style="ellipse;whiteSpace=wrap;html=1;container=0;" vertex="1" parent="vQO8Fa0tWsfRLP2sTiy0-335">
          <mxGeometry x="18.513849058261826" y="57.371763362955406" width="12.075250204725668" height="12.075243863323339" as="geometry" />
        </mxCell>
        <mxCell id="vQO8Fa0tWsfRLP2sTiy0-10" value="&lt;font style=&quot;font-size: 12px;&quot;&gt;-&lt;/font&gt;" style="ellipse;whiteSpace=wrap;html=1;container=0;" vertex="1" parent="vQO8Fa0tWsfRLP2sTiy0-335">
          <mxGeometry x="33.607911814168915" y="78.50344012377128" width="12.075250204725668" height="12.075243863323339" as="geometry" />
        </mxCell>
        <mxCell id="vQO8Fa0tWsfRLP2sTiy0-11" value="&lt;font style=&quot;font-size: 12px;&quot;&gt;+&lt;/font&gt;" style="ellipse;whiteSpace=wrap;html=1;container=0;" vertex="1" parent="vQO8Fa0tWsfRLP2sTiy0-335">
          <mxGeometry x="81.90891263307162" y="36.240086602139584" width="12.075250204725668" height="12.075243863323339" as="geometry" />
        </mxCell>
        <mxCell id="vQO8Fa0tWsfRLP2sTiy0-6" value="" style="endArrow=none;html=1;rounded=0;" edge="1" parent="vQO8Fa0tWsfRLP2sTiy0-335" source="vQO8Fa0tWsfRLP2sTiy0-11" target="vQO8Fa0tWsfRLP2sTiy0-10">
          <mxGeometry width="50" height="50" relative="1" as="geometry">
            <mxPoint x="81.90891263307162" y="39.258897567970436" as="sourcePoint" />
            <mxPoint x="45.68316201889456" y="87.55987302126375" as="targetPoint" />
          </mxGeometry>
        </mxCell>
        <mxCell id="vQO8Fa0tWsfRLP2sTiy0-12" value="&lt;font style=&quot;font-size: 12px;&quot;&gt;+&lt;/font&gt;" style="ellipse;whiteSpace=wrap;html=1;container=0;" vertex="1" parent="vQO8Fa0tWsfRLP2sTiy0-335">
          <mxGeometry x="81.90891263307162" y="78.50344012377128" width="12.075250204725668" height="12.075243863323339" as="geometry" />
        </mxCell>
        <mxCell id="vQO8Fa0tWsfRLP2sTiy0-5" value="" style="endArrow=none;html=1;rounded=0;" edge="1" parent="vQO8Fa0tWsfRLP2sTiy0-335" source="vQO8Fa0tWsfRLP2sTiy0-12" target="vQO8Fa0tWsfRLP2sTiy0-8">
          <mxGeometry width="50" height="50" relative="1" as="geometry">
            <mxPoint x="81.90891263307162" y="87.55987302126375" as="sourcePoint" />
            <mxPoint x="45.68316201889456" y="39.258897567970436" as="targetPoint" />
          </mxGeometry>
        </mxCell>
        <mxCell id="vQO8Fa0tWsfRLP2sTiy0-13" value="" style="endArrow=none;html=1;rounded=0;" edge="1" parent="vQO8Fa0tWsfRLP2sTiy0-335" target="vQO8Fa0tWsfRLP2sTiy0-14">
          <mxGeometry width="50" height="50" relative="1" as="geometry">
            <mxPoint x="93.98416283779727" y="63.40938529461708" as="sourcePoint" />
            <mxPoint x="33.607911814168915" y="63.40938529461708" as="targetPoint" />
          </mxGeometry>
        </mxCell>
        <mxCell id="vQO8Fa0tWsfRLP2sTiy0-14" value="&lt;font style=&quot;font-size: 12px;&quot;&gt;-&lt;/font&gt;" style="ellipse;whiteSpace=wrap;html=1;container=0;" vertex="1" parent="vQO8Fa0tWsfRLP2sTiy0-335">
          <mxGeometry x="97.00297538897871" y="57.371763362955406" width="12.075250204725668" height="12.075243863323339" as="geometry" />
        </mxCell>
        <mxCell id="vQO8Fa0tWsfRLP2sTiy0-7" value="" style="endArrow=none;html=1;rounded=0;entryX=1;entryY=0.5;entryDx=0;entryDy=0;" edge="1" parent="vQO8Fa0tWsfRLP2sTiy0-335" source="vQO8Fa0tWsfRLP2sTiy0-14" target="vQO8Fa0tWsfRLP2sTiy0-9">
          <mxGeometry width="50" height="50" relative="1" as="geometry">
            <mxPoint x="93.98416283779727" y="63.40938529461708" as="sourcePoint" />
            <mxPoint x="33.607911814168915" y="63.40938529461708" as="targetPoint" />
          </mxGeometry>
        </mxCell>
        <mxCell id="vQO8Fa0tWsfRLP2sTiy0-15" value="&lt;font style=&quot;font-size: 44px;&quot;&gt;-&lt;/font&gt;" style="text;html=1;strokeColor=none;fillColor=none;align=center;verticalAlign=middle;whiteSpace=wrap;rounded=0;container=0;" vertex="1" parent="vQO8Fa0tWsfRLP2sTiy0-335">
          <mxGeometry x="41.758705702358725" y="56.46612007320614" width="12.075250204725668" height="12.075243863323339" as="geometry" />
        </mxCell>
        <mxCell id="vQO8Fa0tWsfRLP2sTiy0-16" value="&lt;font style=&quot;font-size: 44px;&quot;&gt;+&lt;/font&gt;" style="text;html=1;strokeColor=none;fillColor=none;align=center;verticalAlign=middle;whiteSpace=wrap;rounded=0;container=0;" vertex="1" parent="vQO8Fa0tWsfRLP2sTiy0-335">
          <mxGeometry x="74.05999999999995" y="57.673644459538494" width="12.075250204725668" height="12.075243863323339" as="geometry" />
        </mxCell>
        <mxCell id="vQO8Fa0tWsfRLP2sTiy0-208" value="" style="ellipse;whiteSpace=wrap;html=1;fillColor=none;container=0;" vertex="1" parent="vQO8Fa0tWsfRLP2sTiy0-335">
          <mxGeometry x="213.70798651407108" y="30.83" width="100.00000000000001" height="66.66666666666667" as="geometry" />
        </mxCell>
        <mxCell id="vQO8Fa0tWsfRLP2sTiy0-209" value="&lt;font style=&quot;font-size: 12px;&quot;&gt;-&lt;/font&gt;" style="ellipse;whiteSpace=wrap;html=1;container=0;" vertex="1" parent="vQO8Fa0tWsfRLP2sTiy0-335">
          <mxGeometry x="233.60791181416903" y="36.240086602139584" width="12.075250204725668" height="12.075243863323339" as="geometry" />
        </mxCell>
        <mxCell id="vQO8Fa0tWsfRLP2sTiy0-210" value="&lt;font style=&quot;font-size: 12px;&quot;&gt;+&lt;/font&gt;" style="ellipse;whiteSpace=wrap;html=1;container=0;" vertex="1" parent="vQO8Fa0tWsfRLP2sTiy0-335">
          <mxGeometry x="218.51384905826194" y="57.371763362955406" width="12.075250204725668" height="12.075243863323339" as="geometry" />
        </mxCell>
        <mxCell id="vQO8Fa0tWsfRLP2sTiy0-211" value="&lt;font style=&quot;font-size: 12px;&quot;&gt;-&lt;/font&gt;" style="ellipse;whiteSpace=wrap;html=1;container=0;" vertex="1" parent="vQO8Fa0tWsfRLP2sTiy0-335">
          <mxGeometry x="233.60791181416903" y="78.50344012377128" width="12.075250204725668" height="12.075243863323339" as="geometry" />
        </mxCell>
        <mxCell id="vQO8Fa0tWsfRLP2sTiy0-212" value="&lt;font style=&quot;font-size: 12px;&quot;&gt;+&lt;/font&gt;" style="ellipse;whiteSpace=wrap;html=1;container=0;" vertex="1" parent="vQO8Fa0tWsfRLP2sTiy0-335">
          <mxGeometry x="281.9089126330716" y="36.240086602139584" width="12.075250204725668" height="12.075243863323339" as="geometry" />
        </mxCell>
        <mxCell id="vQO8Fa0tWsfRLP2sTiy0-213" value="" style="endArrow=none;html=1;rounded=0;" edge="1" parent="vQO8Fa0tWsfRLP2sTiy0-335" source="vQO8Fa0tWsfRLP2sTiy0-212" target="vQO8Fa0tWsfRLP2sTiy0-211">
          <mxGeometry width="50" height="50" relative="1" as="geometry">
            <mxPoint x="281.9089126330716" y="39.258897567970436" as="sourcePoint" />
            <mxPoint x="245.68316201889456" y="87.55987302126375" as="targetPoint" />
          </mxGeometry>
        </mxCell>
        <mxCell id="vQO8Fa0tWsfRLP2sTiy0-214" value="&lt;font style=&quot;font-size: 12px;&quot;&gt;+&lt;/font&gt;" style="ellipse;whiteSpace=wrap;html=1;container=0;" vertex="1" parent="vQO8Fa0tWsfRLP2sTiy0-335">
          <mxGeometry x="281.9089126330716" y="78.50344012377128" width="12.075250204725668" height="12.075243863323339" as="geometry" />
        </mxCell>
        <mxCell id="vQO8Fa0tWsfRLP2sTiy0-215" value="" style="endArrow=none;html=1;rounded=0;" edge="1" parent="vQO8Fa0tWsfRLP2sTiy0-335" source="vQO8Fa0tWsfRLP2sTiy0-214" target="vQO8Fa0tWsfRLP2sTiy0-209">
          <mxGeometry width="50" height="50" relative="1" as="geometry">
            <mxPoint x="281.9089126330716" y="87.55987302126375" as="sourcePoint" />
            <mxPoint x="245.68316201889456" y="39.258897567970436" as="targetPoint" />
          </mxGeometry>
        </mxCell>
        <mxCell id="vQO8Fa0tWsfRLP2sTiy0-216" value="" style="endArrow=none;html=1;rounded=0;" edge="1" parent="vQO8Fa0tWsfRLP2sTiy0-335" target="vQO8Fa0tWsfRLP2sTiy0-217">
          <mxGeometry width="50" height="50" relative="1" as="geometry">
            <mxPoint x="293.9841628377974" y="63.40938529461708" as="sourcePoint" />
            <mxPoint x="233.60791181416903" y="63.40938529461708" as="targetPoint" />
          </mxGeometry>
        </mxCell>
        <mxCell id="vQO8Fa0tWsfRLP2sTiy0-217" value="&lt;font style=&quot;font-size: 12px;&quot;&gt;-&lt;/font&gt;" style="ellipse;whiteSpace=wrap;html=1;container=0;" vertex="1" parent="vQO8Fa0tWsfRLP2sTiy0-335">
          <mxGeometry x="297.0029753889787" y="57.371763362955406" width="12.075250204725668" height="12.075243863323339" as="geometry" />
        </mxCell>
        <mxCell id="vQO8Fa0tWsfRLP2sTiy0-218" value="" style="endArrow=none;html=1;rounded=0;entryX=1;entryY=0.5;entryDx=0;entryDy=0;" edge="1" parent="vQO8Fa0tWsfRLP2sTiy0-335" source="vQO8Fa0tWsfRLP2sTiy0-217" target="vQO8Fa0tWsfRLP2sTiy0-210">
          <mxGeometry width="50" height="50" relative="1" as="geometry">
            <mxPoint x="293.9841628377974" y="63.40938529461708" as="sourcePoint" />
            <mxPoint x="233.60791181416903" y="63.40938529461708" as="targetPoint" />
          </mxGeometry>
        </mxCell>
        <mxCell id="vQO8Fa0tWsfRLP2sTiy0-219" value="&lt;font style=&quot;font-size: 44px;&quot;&gt;-&lt;/font&gt;" style="text;html=1;strokeColor=none;fillColor=none;align=center;verticalAlign=middle;whiteSpace=wrap;rounded=0;container=0;" vertex="1" parent="vQO8Fa0tWsfRLP2sTiy0-335">
          <mxGeometry x="241.75870570235884" y="56.46612007320614" width="12.075250204725668" height="12.075243863323339" as="geometry" />
        </mxCell>
        <mxCell id="vQO8Fa0tWsfRLP2sTiy0-220" value="&lt;font style=&quot;font-size: 44px;&quot;&gt;+&lt;/font&gt;" style="text;html=1;strokeColor=none;fillColor=none;align=center;verticalAlign=middle;whiteSpace=wrap;rounded=0;container=0;" vertex="1" parent="vQO8Fa0tWsfRLP2sTiy0-335">
          <mxGeometry x="274.05999999999995" y="57.673644459538494" width="12.075250204725668" height="12.075243863323339" as="geometry" />
        </mxCell>
        <mxCell id="vQO8Fa0tWsfRLP2sTiy0-321" value="" style="endArrow=none;html=1;rounded=0;" edge="1" parent="vQO8Fa0tWsfRLP2sTiy0-335">
          <mxGeometry width="50" height="50" relative="1" as="geometry">
            <mxPoint x="13.70798651407108" y="30" as="sourcePoint" />
            <mxPoint x="313.7079865140711" y="30" as="targetPoint" />
          </mxGeometry>
        </mxCell>
        <mxCell id="vQO8Fa0tWsfRLP2sTiy0-322" value="" style="triangle;whiteSpace=wrap;html=1;direction=south;fillColor=#000000;container=0;" vertex="1" parent="vQO8Fa0tWsfRLP2sTiy0-335">
          <mxGeometry x="93.70798651407108" width="40" height="30" as="geometry" />
        </mxCell>
        <mxCell id="vQO8Fa0tWsfRLP2sTiy0-323" value="" style="triangle;whiteSpace=wrap;html=1;direction=south;fillColor=#000000;container=0;" vertex="1" parent="vQO8Fa0tWsfRLP2sTiy0-335">
          <mxGeometry x="193.70798651407108" width="40" height="30" as="geometry" />
        </mxCell>
        <mxCell id="vQO8Fa0tWsfRLP2sTiy0-329" value="&lt;span style=&quot;font-size: 44px;&quot;&gt;+&lt;/span&gt;" style="text;html=1;strokeColor=none;fillColor=none;align=center;verticalAlign=middle;whiteSpace=wrap;rounded=0;container=0;" vertex="1" parent="vQO8Fa0tWsfRLP2sTiy0-335">
          <mxGeometry x="324" y="58.13031112620517" width="12.075250204725668" height="12.075243863323339" as="geometry" />
        </mxCell>
        <mxCell id="vQO8Fa0tWsfRLP2sTiy0-222" value="" style="ellipse;whiteSpace=wrap;html=1;fillColor=none;container=0;" vertex="1" parent="vQO8Fa0tWsfRLP2sTiy0-335">
          <mxGeometry x="113.70798651407108" y="30.83" width="100.00000000000001" height="66.66666666666667" as="geometry" />
        </mxCell>
        <mxCell id="vQO8Fa0tWsfRLP2sTiy0-223" value="&lt;font style=&quot;font-size: 12px;&quot;&gt;-&lt;/font&gt;" style="ellipse;whiteSpace=wrap;html=1;container=0;" vertex="1" parent="vQO8Fa0tWsfRLP2sTiy0-335">
          <mxGeometry x="133.60791181416892" y="36.240086602139584" width="12.075250204725668" height="12.075243863323339" as="geometry" />
        </mxCell>
        <mxCell id="vQO8Fa0tWsfRLP2sTiy0-224" value="&lt;font style=&quot;font-size: 12px;&quot;&gt;+&lt;/font&gt;" style="ellipse;whiteSpace=wrap;html=1;container=0;" vertex="1" parent="vQO8Fa0tWsfRLP2sTiy0-335">
          <mxGeometry x="118.51384905826183" y="57.371763362955406" width="12.075250204725668" height="12.075243863323339" as="geometry" />
        </mxCell>
        <mxCell id="vQO8Fa0tWsfRLP2sTiy0-225" value="&lt;font style=&quot;font-size: 12px;&quot;&gt;-&lt;/font&gt;" style="ellipse;whiteSpace=wrap;html=1;container=0;" vertex="1" parent="vQO8Fa0tWsfRLP2sTiy0-335">
          <mxGeometry x="133.60791181416892" y="78.50344012377128" width="12.075250204725668" height="12.075243863323339" as="geometry" />
        </mxCell>
        <mxCell id="vQO8Fa0tWsfRLP2sTiy0-226" value="&lt;font style=&quot;font-size: 12px;&quot;&gt;+&lt;/font&gt;" style="ellipse;whiteSpace=wrap;html=1;container=0;" vertex="1" parent="vQO8Fa0tWsfRLP2sTiy0-335">
          <mxGeometry x="181.90891263307162" y="36.240086602139584" width="12.075250204725668" height="12.075243863323339" as="geometry" />
        </mxCell>
        <mxCell id="vQO8Fa0tWsfRLP2sTiy0-227" value="" style="endArrow=none;html=1;rounded=0;" edge="1" parent="vQO8Fa0tWsfRLP2sTiy0-335" source="vQO8Fa0tWsfRLP2sTiy0-226" target="vQO8Fa0tWsfRLP2sTiy0-225">
          <mxGeometry width="50" height="50" relative="1" as="geometry">
            <mxPoint x="181.90891263307162" y="39.258897567970436" as="sourcePoint" />
            <mxPoint x="145.68316201889456" y="87.55987302126375" as="targetPoint" />
          </mxGeometry>
        </mxCell>
        <mxCell id="vQO8Fa0tWsfRLP2sTiy0-228" value="&lt;font style=&quot;font-size: 12px;&quot;&gt;+&lt;/font&gt;" style="ellipse;whiteSpace=wrap;html=1;container=0;" vertex="1" parent="vQO8Fa0tWsfRLP2sTiy0-335">
          <mxGeometry x="181.90891263307162" y="78.50344012377128" width="12.075250204725668" height="12.075243863323339" as="geometry" />
        </mxCell>
        <mxCell id="vQO8Fa0tWsfRLP2sTiy0-229" value="" style="endArrow=none;html=1;rounded=0;" edge="1" parent="vQO8Fa0tWsfRLP2sTiy0-335" source="vQO8Fa0tWsfRLP2sTiy0-228" target="vQO8Fa0tWsfRLP2sTiy0-223">
          <mxGeometry width="50" height="50" relative="1" as="geometry">
            <mxPoint x="181.90891263307162" y="87.55987302126375" as="sourcePoint" />
            <mxPoint x="145.68316201889456" y="39.258897567970436" as="targetPoint" />
          </mxGeometry>
        </mxCell>
        <mxCell id="vQO8Fa0tWsfRLP2sTiy0-230" value="" style="endArrow=none;html=1;rounded=0;" edge="1" parent="vQO8Fa0tWsfRLP2sTiy0-335" target="vQO8Fa0tWsfRLP2sTiy0-231">
          <mxGeometry width="50" height="50" relative="1" as="geometry">
            <mxPoint x="193.98416283779738" y="63.40938529461708" as="sourcePoint" />
            <mxPoint x="133.60791181416892" y="63.40938529461708" as="targetPoint" />
          </mxGeometry>
        </mxCell>
        <mxCell id="vQO8Fa0tWsfRLP2sTiy0-231" value="&lt;font style=&quot;font-size: 12px;&quot;&gt;-&lt;/font&gt;" style="ellipse;whiteSpace=wrap;html=1;container=0;" vertex="1" parent="vQO8Fa0tWsfRLP2sTiy0-335">
          <mxGeometry x="197.0029753889787" y="57.371763362955406" width="12.075250204725668" height="12.075243863323339" as="geometry" />
        </mxCell>
        <mxCell id="vQO8Fa0tWsfRLP2sTiy0-232" value="" style="endArrow=none;html=1;rounded=0;entryX=1;entryY=0.5;entryDx=0;entryDy=0;" edge="1" parent="vQO8Fa0tWsfRLP2sTiy0-335" source="vQO8Fa0tWsfRLP2sTiy0-231" target="vQO8Fa0tWsfRLP2sTiy0-224">
          <mxGeometry width="50" height="50" relative="1" as="geometry">
            <mxPoint x="193.98416283779738" y="63.40938529461708" as="sourcePoint" />
            <mxPoint x="133.60791181416892" y="63.40938529461708" as="targetPoint" />
          </mxGeometry>
        </mxCell>
        <mxCell id="vQO8Fa0tWsfRLP2sTiy0-233" value="&lt;font style=&quot;font-size: 44px;&quot;&gt;-&lt;/font&gt;" style="text;html=1;strokeColor=none;fillColor=none;align=center;verticalAlign=middle;whiteSpace=wrap;rounded=0;container=0;" vertex="1" parent="vQO8Fa0tWsfRLP2sTiy0-335">
          <mxGeometry x="141.75870570235872" y="56.46612007320614" width="12.075250204725668" height="12.075243863323339" as="geometry" />
        </mxCell>
        <mxCell id="vQO8Fa0tWsfRLP2sTiy0-234" value="&lt;font style=&quot;font-size: 44px;&quot;&gt;+&lt;/font&gt;" style="text;html=1;strokeColor=none;fillColor=none;align=center;verticalAlign=middle;whiteSpace=wrap;rounded=0;container=0;" vertex="1" parent="vQO8Fa0tWsfRLP2sTiy0-335">
          <mxGeometry x="174.05999999999995" y="57.673644459538494" width="12.075250204725668" height="12.075243863323339" as="geometry" />
        </mxCell>
        <mxCell id="vQO8Fa0tWsfRLP2sTiy0-236" value="" style="ellipse;whiteSpace=wrap;html=1;fillColor=none;container=0;" vertex="1" parent="vQO8Fa0tWsfRLP2sTiy0-335">
          <mxGeometry x="13.70798651407108" y="97.49666666666668" width="100.00000000000001" height="66.66666666666667" as="geometry" />
        </mxCell>
        <mxCell id="vQO8Fa0tWsfRLP2sTiy0-237" value="&lt;font style=&quot;font-size: 12px;&quot;&gt;-&lt;/font&gt;" style="ellipse;whiteSpace=wrap;html=1;container=0;" vertex="1" parent="vQO8Fa0tWsfRLP2sTiy0-335">
          <mxGeometry x="33.607911814168915" y="102.90675326880627" width="12.075250204725668" height="12.075243863323339" as="geometry" />
        </mxCell>
        <mxCell id="vQO8Fa0tWsfRLP2sTiy0-238" value="&lt;font style=&quot;font-size: 12px;&quot;&gt;+&lt;/font&gt;" style="ellipse;whiteSpace=wrap;html=1;container=0;" vertex="1" parent="vQO8Fa0tWsfRLP2sTiy0-335">
          <mxGeometry x="18.513849058261826" y="124.03843002962209" width="12.075250204725668" height="12.075243863323339" as="geometry" />
        </mxCell>
        <mxCell id="vQO8Fa0tWsfRLP2sTiy0-239" value="&lt;font style=&quot;font-size: 12px;&quot;&gt;-&lt;/font&gt;" style="ellipse;whiteSpace=wrap;html=1;container=0;" vertex="1" parent="vQO8Fa0tWsfRLP2sTiy0-335">
          <mxGeometry x="33.607911814168915" y="145.17010679043796" width="12.075250204725668" height="12.075243863323339" as="geometry" />
        </mxCell>
        <mxCell id="vQO8Fa0tWsfRLP2sTiy0-240" value="&lt;font style=&quot;font-size: 12px;&quot;&gt;+&lt;/font&gt;" style="ellipse;whiteSpace=wrap;html=1;container=0;" vertex="1" parent="vQO8Fa0tWsfRLP2sTiy0-335">
          <mxGeometry x="81.90891263307162" y="102.90675326880627" width="12.075250204725668" height="12.075243863323339" as="geometry" />
        </mxCell>
        <mxCell id="vQO8Fa0tWsfRLP2sTiy0-241" value="" style="endArrow=none;html=1;rounded=0;" edge="1" parent="vQO8Fa0tWsfRLP2sTiy0-335" source="vQO8Fa0tWsfRLP2sTiy0-240" target="vQO8Fa0tWsfRLP2sTiy0-239">
          <mxGeometry width="50" height="50" relative="1" as="geometry">
            <mxPoint x="81.90891263307162" y="105.92556423463712" as="sourcePoint" />
            <mxPoint x="45.68316201889456" y="154.22653968793043" as="targetPoint" />
          </mxGeometry>
        </mxCell>
        <mxCell id="vQO8Fa0tWsfRLP2sTiy0-242" value="&lt;font style=&quot;font-size: 12px;&quot;&gt;+&lt;/font&gt;" style="ellipse;whiteSpace=wrap;html=1;container=0;" vertex="1" parent="vQO8Fa0tWsfRLP2sTiy0-335">
          <mxGeometry x="81.90891263307162" y="145.17010679043796" width="12.075250204725668" height="12.075243863323339" as="geometry" />
        </mxCell>
        <mxCell id="vQO8Fa0tWsfRLP2sTiy0-243" value="" style="endArrow=none;html=1;rounded=0;" edge="1" parent="vQO8Fa0tWsfRLP2sTiy0-335" source="vQO8Fa0tWsfRLP2sTiy0-242" target="vQO8Fa0tWsfRLP2sTiy0-237">
          <mxGeometry width="50" height="50" relative="1" as="geometry">
            <mxPoint x="81.90891263307162" y="154.22653968793043" as="sourcePoint" />
            <mxPoint x="45.68316201889456" y="105.92556423463712" as="targetPoint" />
          </mxGeometry>
        </mxCell>
        <mxCell id="vQO8Fa0tWsfRLP2sTiy0-244" value="" style="endArrow=none;html=1;rounded=0;" edge="1" parent="vQO8Fa0tWsfRLP2sTiy0-335" target="vQO8Fa0tWsfRLP2sTiy0-245">
          <mxGeometry width="50" height="50" relative="1" as="geometry">
            <mxPoint x="93.98416283779727" y="130.07605196128378" as="sourcePoint" />
            <mxPoint x="33.607911814168915" y="130.07605196128378" as="targetPoint" />
          </mxGeometry>
        </mxCell>
        <mxCell id="vQO8Fa0tWsfRLP2sTiy0-245" value="&lt;font style=&quot;font-size: 12px;&quot;&gt;-&lt;/font&gt;" style="ellipse;whiteSpace=wrap;html=1;container=0;" vertex="1" parent="vQO8Fa0tWsfRLP2sTiy0-335">
          <mxGeometry x="97.00297538897871" y="124.03843002962209" width="12.075250204725668" height="12.075243863323339" as="geometry" />
        </mxCell>
        <mxCell id="vQO8Fa0tWsfRLP2sTiy0-246" value="" style="endArrow=none;html=1;rounded=0;entryX=1;entryY=0.5;entryDx=0;entryDy=0;" edge="1" parent="vQO8Fa0tWsfRLP2sTiy0-335" source="vQO8Fa0tWsfRLP2sTiy0-245" target="vQO8Fa0tWsfRLP2sTiy0-238">
          <mxGeometry width="50" height="50" relative="1" as="geometry">
            <mxPoint x="93.98416283779727" y="130.07605196128378" as="sourcePoint" />
            <mxPoint x="33.607911814168915" y="130.07605196128378" as="targetPoint" />
          </mxGeometry>
        </mxCell>
        <mxCell id="vQO8Fa0tWsfRLP2sTiy0-247" value="&lt;font style=&quot;font-size: 44px;&quot;&gt;-&lt;/font&gt;" style="text;html=1;strokeColor=none;fillColor=none;align=center;verticalAlign=middle;whiteSpace=wrap;rounded=0;container=0;" vertex="1" parent="vQO8Fa0tWsfRLP2sTiy0-335">
          <mxGeometry x="41.758705702358725" y="123.13278673987283" width="12.075250204725668" height="12.075243863323339" as="geometry" />
        </mxCell>
        <mxCell id="vQO8Fa0tWsfRLP2sTiy0-248" value="&lt;font style=&quot;font-size: 44px;&quot;&gt;+&lt;/font&gt;" style="text;html=1;strokeColor=none;fillColor=none;align=center;verticalAlign=middle;whiteSpace=wrap;rounded=0;container=0;" vertex="1" parent="vQO8Fa0tWsfRLP2sTiy0-335">
          <mxGeometry x="74.05999999999995" y="124.34031112620518" width="12.075250204725668" height="12.075243863323339" as="geometry" />
        </mxCell>
        <mxCell id="vQO8Fa0tWsfRLP2sTiy0-250" value="" style="ellipse;whiteSpace=wrap;html=1;fillColor=none;container=0;" vertex="1" parent="vQO8Fa0tWsfRLP2sTiy0-335">
          <mxGeometry x="213.70798651407108" y="97.49666666666668" width="100.00000000000001" height="66.66666666666667" as="geometry" />
        </mxCell>
        <mxCell id="vQO8Fa0tWsfRLP2sTiy0-251" value="&lt;font style=&quot;font-size: 12px;&quot;&gt;-&lt;/font&gt;" style="ellipse;whiteSpace=wrap;html=1;container=0;" vertex="1" parent="vQO8Fa0tWsfRLP2sTiy0-335">
          <mxGeometry x="233.60791181416903" y="102.90675326880627" width="12.075250204725668" height="12.075243863323339" as="geometry" />
        </mxCell>
        <mxCell id="vQO8Fa0tWsfRLP2sTiy0-252" value="&lt;font style=&quot;font-size: 12px;&quot;&gt;+&lt;/font&gt;" style="ellipse;whiteSpace=wrap;html=1;container=0;" vertex="1" parent="vQO8Fa0tWsfRLP2sTiy0-335">
          <mxGeometry x="218.51384905826194" y="124.03843002962209" width="12.075250204725668" height="12.075243863323339" as="geometry" />
        </mxCell>
        <mxCell id="vQO8Fa0tWsfRLP2sTiy0-253" value="&lt;font style=&quot;font-size: 12px;&quot;&gt;-&lt;/font&gt;" style="ellipse;whiteSpace=wrap;html=1;container=0;" vertex="1" parent="vQO8Fa0tWsfRLP2sTiy0-335">
          <mxGeometry x="233.60791181416903" y="145.17010679043796" width="12.075250204725668" height="12.075243863323339" as="geometry" />
        </mxCell>
        <mxCell id="vQO8Fa0tWsfRLP2sTiy0-254" value="&lt;font style=&quot;font-size: 12px;&quot;&gt;+&lt;/font&gt;" style="ellipse;whiteSpace=wrap;html=1;container=0;" vertex="1" parent="vQO8Fa0tWsfRLP2sTiy0-335">
          <mxGeometry x="281.9089126330716" y="102.90675326880627" width="12.075250204725668" height="12.075243863323339" as="geometry" />
        </mxCell>
        <mxCell id="vQO8Fa0tWsfRLP2sTiy0-255" value="" style="endArrow=none;html=1;rounded=0;" edge="1" parent="vQO8Fa0tWsfRLP2sTiy0-335" source="vQO8Fa0tWsfRLP2sTiy0-254" target="vQO8Fa0tWsfRLP2sTiy0-253">
          <mxGeometry width="50" height="50" relative="1" as="geometry">
            <mxPoint x="281.9089126330716" y="105.92556423463712" as="sourcePoint" />
            <mxPoint x="245.68316201889456" y="154.22653968793043" as="targetPoint" />
          </mxGeometry>
        </mxCell>
        <mxCell id="vQO8Fa0tWsfRLP2sTiy0-256" value="&lt;font style=&quot;font-size: 12px;&quot;&gt;+&lt;/font&gt;" style="ellipse;whiteSpace=wrap;html=1;container=0;" vertex="1" parent="vQO8Fa0tWsfRLP2sTiy0-335">
          <mxGeometry x="281.9089126330716" y="145.17010679043796" width="12.075250204725668" height="12.075243863323339" as="geometry" />
        </mxCell>
        <mxCell id="vQO8Fa0tWsfRLP2sTiy0-257" value="" style="endArrow=none;html=1;rounded=0;" edge="1" parent="vQO8Fa0tWsfRLP2sTiy0-335" source="vQO8Fa0tWsfRLP2sTiy0-256" target="vQO8Fa0tWsfRLP2sTiy0-251">
          <mxGeometry width="50" height="50" relative="1" as="geometry">
            <mxPoint x="281.9089126330716" y="154.22653968793043" as="sourcePoint" />
            <mxPoint x="245.68316201889456" y="105.92556423463712" as="targetPoint" />
          </mxGeometry>
        </mxCell>
        <mxCell id="vQO8Fa0tWsfRLP2sTiy0-258" value="" style="endArrow=none;html=1;rounded=0;" edge="1" parent="vQO8Fa0tWsfRLP2sTiy0-335" target="vQO8Fa0tWsfRLP2sTiy0-259">
          <mxGeometry width="50" height="50" relative="1" as="geometry">
            <mxPoint x="293.9841628377974" y="130.07605196128378" as="sourcePoint" />
            <mxPoint x="233.60791181416903" y="130.07605196128378" as="targetPoint" />
          </mxGeometry>
        </mxCell>
        <mxCell id="vQO8Fa0tWsfRLP2sTiy0-259" value="&lt;font style=&quot;font-size: 12px;&quot;&gt;-&lt;/font&gt;" style="ellipse;whiteSpace=wrap;html=1;container=0;" vertex="1" parent="vQO8Fa0tWsfRLP2sTiy0-335">
          <mxGeometry x="297.0029753889787" y="124.03843002962209" width="12.075250204725668" height="12.075243863323339" as="geometry" />
        </mxCell>
        <mxCell id="vQO8Fa0tWsfRLP2sTiy0-260" value="" style="endArrow=none;html=1;rounded=0;entryX=1;entryY=0.5;entryDx=0;entryDy=0;" edge="1" parent="vQO8Fa0tWsfRLP2sTiy0-335" source="vQO8Fa0tWsfRLP2sTiy0-259" target="vQO8Fa0tWsfRLP2sTiy0-252">
          <mxGeometry width="50" height="50" relative="1" as="geometry">
            <mxPoint x="293.9841628377974" y="130.07605196128378" as="sourcePoint" />
            <mxPoint x="233.60791181416903" y="130.07605196128378" as="targetPoint" />
          </mxGeometry>
        </mxCell>
        <mxCell id="vQO8Fa0tWsfRLP2sTiy0-261" value="&lt;font style=&quot;font-size: 44px;&quot;&gt;-&lt;/font&gt;" style="text;html=1;strokeColor=none;fillColor=none;align=center;verticalAlign=middle;whiteSpace=wrap;rounded=0;container=0;" vertex="1" parent="vQO8Fa0tWsfRLP2sTiy0-335">
          <mxGeometry x="241.75870570235884" y="123.13278673987283" width="12.075250204725668" height="12.075243863323339" as="geometry" />
        </mxCell>
        <mxCell id="vQO8Fa0tWsfRLP2sTiy0-262" value="&lt;font style=&quot;font-size: 44px;&quot;&gt;+&lt;/font&gt;" style="text;html=1;strokeColor=none;fillColor=none;align=center;verticalAlign=middle;whiteSpace=wrap;rounded=0;container=0;" vertex="1" parent="vQO8Fa0tWsfRLP2sTiy0-335">
          <mxGeometry x="274.05999999999995" y="124.34031112620518" width="12.075250204725668" height="12.075243863323339" as="geometry" />
        </mxCell>
        <mxCell id="vQO8Fa0tWsfRLP2sTiy0-264" value="" style="ellipse;whiteSpace=wrap;html=1;fillColor=none;container=0;" vertex="1" parent="vQO8Fa0tWsfRLP2sTiy0-335">
          <mxGeometry x="113.70798651407108" y="97.49666666666668" width="100.00000000000001" height="66.66666666666667" as="geometry" />
        </mxCell>
        <mxCell id="vQO8Fa0tWsfRLP2sTiy0-265" value="&lt;font style=&quot;font-size: 12px;&quot;&gt;-&lt;/font&gt;" style="ellipse;whiteSpace=wrap;html=1;container=0;" vertex="1" parent="vQO8Fa0tWsfRLP2sTiy0-335">
          <mxGeometry x="133.60791181416892" y="102.90675326880627" width="12.075250204725668" height="12.075243863323339" as="geometry" />
        </mxCell>
        <mxCell id="vQO8Fa0tWsfRLP2sTiy0-266" value="&lt;font style=&quot;font-size: 12px;&quot;&gt;+&lt;/font&gt;" style="ellipse;whiteSpace=wrap;html=1;container=0;" vertex="1" parent="vQO8Fa0tWsfRLP2sTiy0-335">
          <mxGeometry x="118.51384905826183" y="124.03843002962209" width="12.075250204725668" height="12.075243863323339" as="geometry" />
        </mxCell>
        <mxCell id="vQO8Fa0tWsfRLP2sTiy0-267" value="&lt;font style=&quot;font-size: 12px;&quot;&gt;-&lt;/font&gt;" style="ellipse;whiteSpace=wrap;html=1;container=0;" vertex="1" parent="vQO8Fa0tWsfRLP2sTiy0-335">
          <mxGeometry x="133.60791181416892" y="145.17010679043796" width="12.075250204725668" height="12.075243863323339" as="geometry" />
        </mxCell>
        <mxCell id="vQO8Fa0tWsfRLP2sTiy0-268" value="&lt;font style=&quot;font-size: 12px;&quot;&gt;+&lt;/font&gt;" style="ellipse;whiteSpace=wrap;html=1;container=0;" vertex="1" parent="vQO8Fa0tWsfRLP2sTiy0-335">
          <mxGeometry x="181.90891263307162" y="102.90675326880627" width="12.075250204725668" height="12.075243863323339" as="geometry" />
        </mxCell>
        <mxCell id="vQO8Fa0tWsfRLP2sTiy0-269" value="" style="endArrow=none;html=1;rounded=0;" edge="1" parent="vQO8Fa0tWsfRLP2sTiy0-335" source="vQO8Fa0tWsfRLP2sTiy0-268" target="vQO8Fa0tWsfRLP2sTiy0-267">
          <mxGeometry width="50" height="50" relative="1" as="geometry">
            <mxPoint x="181.90891263307162" y="105.92556423463712" as="sourcePoint" />
            <mxPoint x="145.68316201889456" y="154.22653968793043" as="targetPoint" />
          </mxGeometry>
        </mxCell>
        <mxCell id="vQO8Fa0tWsfRLP2sTiy0-270" value="&lt;font style=&quot;font-size: 12px;&quot;&gt;+&lt;/font&gt;" style="ellipse;whiteSpace=wrap;html=1;container=0;" vertex="1" parent="vQO8Fa0tWsfRLP2sTiy0-335">
          <mxGeometry x="181.90891263307162" y="145.17010679043796" width="12.075250204725668" height="12.075243863323339" as="geometry" />
        </mxCell>
        <mxCell id="vQO8Fa0tWsfRLP2sTiy0-271" value="" style="endArrow=none;html=1;rounded=0;" edge="1" parent="vQO8Fa0tWsfRLP2sTiy0-335" source="vQO8Fa0tWsfRLP2sTiy0-270" target="vQO8Fa0tWsfRLP2sTiy0-265">
          <mxGeometry width="50" height="50" relative="1" as="geometry">
            <mxPoint x="181.90891263307162" y="154.22653968793043" as="sourcePoint" />
            <mxPoint x="145.68316201889456" y="105.92556423463712" as="targetPoint" />
          </mxGeometry>
        </mxCell>
        <mxCell id="vQO8Fa0tWsfRLP2sTiy0-272" value="" style="endArrow=none;html=1;rounded=0;" edge="1" parent="vQO8Fa0tWsfRLP2sTiy0-335" target="vQO8Fa0tWsfRLP2sTiy0-273">
          <mxGeometry width="50" height="50" relative="1" as="geometry">
            <mxPoint x="193.98416283779738" y="130.07605196128378" as="sourcePoint" />
            <mxPoint x="133.60791181416892" y="130.07605196128378" as="targetPoint" />
          </mxGeometry>
        </mxCell>
        <mxCell id="vQO8Fa0tWsfRLP2sTiy0-273" value="&lt;font style=&quot;font-size: 12px;&quot;&gt;-&lt;/font&gt;" style="ellipse;whiteSpace=wrap;html=1;container=0;" vertex="1" parent="vQO8Fa0tWsfRLP2sTiy0-335">
          <mxGeometry x="197.0029753889787" y="124.03843002962209" width="12.075250204725668" height="12.075243863323339" as="geometry" />
        </mxCell>
        <mxCell id="vQO8Fa0tWsfRLP2sTiy0-274" value="" style="endArrow=none;html=1;rounded=0;entryX=1;entryY=0.5;entryDx=0;entryDy=0;" edge="1" parent="vQO8Fa0tWsfRLP2sTiy0-335" source="vQO8Fa0tWsfRLP2sTiy0-273" target="vQO8Fa0tWsfRLP2sTiy0-266">
          <mxGeometry width="50" height="50" relative="1" as="geometry">
            <mxPoint x="193.98416283779738" y="130.07605196128378" as="sourcePoint" />
            <mxPoint x="133.60791181416892" y="130.07605196128378" as="targetPoint" />
          </mxGeometry>
        </mxCell>
        <mxCell id="vQO8Fa0tWsfRLP2sTiy0-275" value="&lt;font style=&quot;font-size: 44px;&quot;&gt;-&lt;/font&gt;" style="text;html=1;strokeColor=none;fillColor=none;align=center;verticalAlign=middle;whiteSpace=wrap;rounded=0;container=0;" vertex="1" parent="vQO8Fa0tWsfRLP2sTiy0-335">
          <mxGeometry x="141.75870570235872" y="123.13278673987283" width="12.075250204725668" height="12.075243863323339" as="geometry" />
        </mxCell>
        <mxCell id="vQO8Fa0tWsfRLP2sTiy0-276" value="&lt;font style=&quot;font-size: 44px;&quot;&gt;+&lt;/font&gt;" style="text;html=1;strokeColor=none;fillColor=none;align=center;verticalAlign=middle;whiteSpace=wrap;rounded=0;container=0;" vertex="1" parent="vQO8Fa0tWsfRLP2sTiy0-335">
          <mxGeometry x="174.05999999999995" y="124.34031112620518" width="12.075250204725668" height="12.075243863323339" as="geometry" />
        </mxCell>
        <mxCell id="vQO8Fa0tWsfRLP2sTiy0-278" value="" style="ellipse;whiteSpace=wrap;html=1;fillColor=none;container=0;" vertex="1" parent="vQO8Fa0tWsfRLP2sTiy0-335">
          <mxGeometry x="13.70798651407108" y="164.16333333333336" width="100.00000000000001" height="66.66666666666667" as="geometry" />
        </mxCell>
        <mxCell id="vQO8Fa0tWsfRLP2sTiy0-279" value="&lt;font style=&quot;font-size: 12px;&quot;&gt;-&lt;/font&gt;" style="ellipse;whiteSpace=wrap;html=1;container=0;" vertex="1" parent="vQO8Fa0tWsfRLP2sTiy0-335">
          <mxGeometry x="33.607911814168915" y="169.57341993547294" width="12.075250204725668" height="12.075243863323339" as="geometry" />
        </mxCell>
        <mxCell id="vQO8Fa0tWsfRLP2sTiy0-280" value="&lt;font style=&quot;font-size: 12px;&quot;&gt;+&lt;/font&gt;" style="ellipse;whiteSpace=wrap;html=1;container=0;" vertex="1" parent="vQO8Fa0tWsfRLP2sTiy0-335">
          <mxGeometry x="18.513849058261826" y="190.70509669628876" width="12.075250204725668" height="12.075243863323339" as="geometry" />
        </mxCell>
        <mxCell id="vQO8Fa0tWsfRLP2sTiy0-281" value="&lt;font style=&quot;font-size: 12px;&quot;&gt;-&lt;/font&gt;" style="ellipse;whiteSpace=wrap;html=1;container=0;" vertex="1" parent="vQO8Fa0tWsfRLP2sTiy0-335">
          <mxGeometry x="33.607911814168915" y="211.83677345710458" width="12.075250204725668" height="12.075243863323339" as="geometry" />
        </mxCell>
        <mxCell id="vQO8Fa0tWsfRLP2sTiy0-282" value="&lt;font style=&quot;font-size: 12px;&quot;&gt;+&lt;/font&gt;" style="ellipse;whiteSpace=wrap;html=1;container=0;" vertex="1" parent="vQO8Fa0tWsfRLP2sTiy0-335">
          <mxGeometry x="81.90891263307162" y="169.57341993547294" width="12.075250204725668" height="12.075243863323339" as="geometry" />
        </mxCell>
        <mxCell id="vQO8Fa0tWsfRLP2sTiy0-283" value="" style="endArrow=none;html=1;rounded=0;" edge="1" parent="vQO8Fa0tWsfRLP2sTiy0-335" source="vQO8Fa0tWsfRLP2sTiy0-282" target="vQO8Fa0tWsfRLP2sTiy0-281">
          <mxGeometry width="50" height="50" relative="1" as="geometry">
            <mxPoint x="81.90891263307162" y="172.59223090130376" as="sourcePoint" />
            <mxPoint x="45.68316201889456" y="220.8932063545971" as="targetPoint" />
          </mxGeometry>
        </mxCell>
        <mxCell id="vQO8Fa0tWsfRLP2sTiy0-284" value="&lt;font style=&quot;font-size: 12px;&quot;&gt;+&lt;/font&gt;" style="ellipse;whiteSpace=wrap;html=1;container=0;" vertex="1" parent="vQO8Fa0tWsfRLP2sTiy0-335">
          <mxGeometry x="81.90891263307162" y="211.83677345710458" width="12.075250204725668" height="12.075243863323339" as="geometry" />
        </mxCell>
        <mxCell id="vQO8Fa0tWsfRLP2sTiy0-285" value="" style="endArrow=none;html=1;rounded=0;" edge="1" parent="vQO8Fa0tWsfRLP2sTiy0-335" source="vQO8Fa0tWsfRLP2sTiy0-284" target="vQO8Fa0tWsfRLP2sTiy0-279">
          <mxGeometry width="50" height="50" relative="1" as="geometry">
            <mxPoint x="81.90891263307162" y="220.8932063545971" as="sourcePoint" />
            <mxPoint x="45.68316201889456" y="172.59223090130376" as="targetPoint" />
          </mxGeometry>
        </mxCell>
        <mxCell id="vQO8Fa0tWsfRLP2sTiy0-286" value="" style="endArrow=none;html=1;rounded=0;" edge="1" parent="vQO8Fa0tWsfRLP2sTiy0-335" target="vQO8Fa0tWsfRLP2sTiy0-287">
          <mxGeometry width="50" height="50" relative="1" as="geometry">
            <mxPoint x="93.98416283779727" y="196.7427186279504" as="sourcePoint" />
            <mxPoint x="33.607911814168915" y="196.7427186279504" as="targetPoint" />
          </mxGeometry>
        </mxCell>
        <mxCell id="vQO8Fa0tWsfRLP2sTiy0-287" value="&lt;font style=&quot;font-size: 12px;&quot;&gt;-&lt;/font&gt;" style="ellipse;whiteSpace=wrap;html=1;container=0;" vertex="1" parent="vQO8Fa0tWsfRLP2sTiy0-335">
          <mxGeometry x="97.00297538897871" y="190.70509669628876" width="12.075250204725668" height="12.075243863323339" as="geometry" />
        </mxCell>
        <mxCell id="vQO8Fa0tWsfRLP2sTiy0-288" value="" style="endArrow=none;html=1;rounded=0;entryX=1;entryY=0.5;entryDx=0;entryDy=0;" edge="1" parent="vQO8Fa0tWsfRLP2sTiy0-335" source="vQO8Fa0tWsfRLP2sTiy0-287" target="vQO8Fa0tWsfRLP2sTiy0-280">
          <mxGeometry width="50" height="50" relative="1" as="geometry">
            <mxPoint x="93.98416283779727" y="196.7427186279504" as="sourcePoint" />
            <mxPoint x="33.607911814168915" y="196.7427186279504" as="targetPoint" />
          </mxGeometry>
        </mxCell>
        <mxCell id="vQO8Fa0tWsfRLP2sTiy0-289" value="&lt;font style=&quot;font-size: 44px;&quot;&gt;-&lt;/font&gt;" style="text;html=1;strokeColor=none;fillColor=none;align=center;verticalAlign=middle;whiteSpace=wrap;rounded=0;container=0;" vertex="1" parent="vQO8Fa0tWsfRLP2sTiy0-335">
          <mxGeometry x="41.758705702358725" y="189.7994534065395" width="12.075250204725668" height="12.075243863323339" as="geometry" />
        </mxCell>
        <mxCell id="vQO8Fa0tWsfRLP2sTiy0-290" value="&lt;font style=&quot;font-size: 44px;&quot;&gt;+&lt;/font&gt;" style="text;html=1;strokeColor=none;fillColor=none;align=center;verticalAlign=middle;whiteSpace=wrap;rounded=0;container=0;" vertex="1" parent="vQO8Fa0tWsfRLP2sTiy0-335">
          <mxGeometry x="74.05999999999995" y="191.00697779287185" width="12.075250204725668" height="12.075243863323339" as="geometry" />
        </mxCell>
        <mxCell id="vQO8Fa0tWsfRLP2sTiy0-292" value="" style="ellipse;whiteSpace=wrap;html=1;fillColor=none;container=0;" vertex="1" parent="vQO8Fa0tWsfRLP2sTiy0-335">
          <mxGeometry x="213.70798651407108" y="164.16333333333336" width="100.00000000000001" height="66.66666666666667" as="geometry" />
        </mxCell>
        <mxCell id="vQO8Fa0tWsfRLP2sTiy0-293" value="&lt;font style=&quot;font-size: 12px;&quot;&gt;-&lt;/font&gt;" style="ellipse;whiteSpace=wrap;html=1;container=0;" vertex="1" parent="vQO8Fa0tWsfRLP2sTiy0-335">
          <mxGeometry x="233.60791181416903" y="169.57341993547294" width="12.075250204725668" height="12.075243863323339" as="geometry" />
        </mxCell>
        <mxCell id="vQO8Fa0tWsfRLP2sTiy0-294" value="&lt;font style=&quot;font-size: 12px;&quot;&gt;+&lt;/font&gt;" style="ellipse;whiteSpace=wrap;html=1;container=0;" vertex="1" parent="vQO8Fa0tWsfRLP2sTiy0-335">
          <mxGeometry x="218.51384905826194" y="190.70509669628876" width="12.075250204725668" height="12.075243863323339" as="geometry" />
        </mxCell>
        <mxCell id="vQO8Fa0tWsfRLP2sTiy0-295" value="&lt;font style=&quot;font-size: 12px;&quot;&gt;-&lt;/font&gt;" style="ellipse;whiteSpace=wrap;html=1;container=0;" vertex="1" parent="vQO8Fa0tWsfRLP2sTiy0-335">
          <mxGeometry x="233.60791181416903" y="211.83677345710458" width="12.075250204725668" height="12.075243863323339" as="geometry" />
        </mxCell>
        <mxCell id="vQO8Fa0tWsfRLP2sTiy0-296" value="&lt;font style=&quot;font-size: 12px;&quot;&gt;+&lt;/font&gt;" style="ellipse;whiteSpace=wrap;html=1;container=0;" vertex="1" parent="vQO8Fa0tWsfRLP2sTiy0-335">
          <mxGeometry x="281.9089126330716" y="169.57341993547294" width="12.075250204725668" height="12.075243863323339" as="geometry" />
        </mxCell>
        <mxCell id="vQO8Fa0tWsfRLP2sTiy0-297" value="" style="endArrow=none;html=1;rounded=0;" edge="1" parent="vQO8Fa0tWsfRLP2sTiy0-335" source="vQO8Fa0tWsfRLP2sTiy0-296" target="vQO8Fa0tWsfRLP2sTiy0-295">
          <mxGeometry width="50" height="50" relative="1" as="geometry">
            <mxPoint x="281.9089126330716" y="172.59223090130376" as="sourcePoint" />
            <mxPoint x="245.68316201889456" y="220.8932063545971" as="targetPoint" />
          </mxGeometry>
        </mxCell>
        <mxCell id="vQO8Fa0tWsfRLP2sTiy0-298" value="&lt;font style=&quot;font-size: 12px;&quot;&gt;+&lt;/font&gt;" style="ellipse;whiteSpace=wrap;html=1;container=0;" vertex="1" parent="vQO8Fa0tWsfRLP2sTiy0-335">
          <mxGeometry x="281.9089126330716" y="211.83677345710458" width="12.075250204725668" height="12.075243863323339" as="geometry" />
        </mxCell>
        <mxCell id="vQO8Fa0tWsfRLP2sTiy0-299" value="" style="endArrow=none;html=1;rounded=0;" edge="1" parent="vQO8Fa0tWsfRLP2sTiy0-335" source="vQO8Fa0tWsfRLP2sTiy0-298" target="vQO8Fa0tWsfRLP2sTiy0-293">
          <mxGeometry width="50" height="50" relative="1" as="geometry">
            <mxPoint x="281.9089126330716" y="220.8932063545971" as="sourcePoint" />
            <mxPoint x="245.68316201889456" y="172.59223090130376" as="targetPoint" />
          </mxGeometry>
        </mxCell>
        <mxCell id="vQO8Fa0tWsfRLP2sTiy0-300" value="" style="endArrow=none;html=1;rounded=0;" edge="1" parent="vQO8Fa0tWsfRLP2sTiy0-335" target="vQO8Fa0tWsfRLP2sTiy0-301">
          <mxGeometry width="50" height="50" relative="1" as="geometry">
            <mxPoint x="293.9841628377974" y="196.7427186279504" as="sourcePoint" />
            <mxPoint x="233.60791181416903" y="196.7427186279504" as="targetPoint" />
          </mxGeometry>
        </mxCell>
        <mxCell id="vQO8Fa0tWsfRLP2sTiy0-301" value="&lt;font style=&quot;font-size: 12px;&quot;&gt;-&lt;/font&gt;" style="ellipse;whiteSpace=wrap;html=1;container=0;" vertex="1" parent="vQO8Fa0tWsfRLP2sTiy0-335">
          <mxGeometry x="297.0029753889787" y="190.70509669628876" width="12.075250204725668" height="12.075243863323339" as="geometry" />
        </mxCell>
        <mxCell id="vQO8Fa0tWsfRLP2sTiy0-302" value="" style="endArrow=none;html=1;rounded=0;entryX=1;entryY=0.5;entryDx=0;entryDy=0;" edge="1" parent="vQO8Fa0tWsfRLP2sTiy0-335" source="vQO8Fa0tWsfRLP2sTiy0-301" target="vQO8Fa0tWsfRLP2sTiy0-294">
          <mxGeometry width="50" height="50" relative="1" as="geometry">
            <mxPoint x="293.9841628377974" y="196.7427186279504" as="sourcePoint" />
            <mxPoint x="233.60791181416903" y="196.7427186279504" as="targetPoint" />
          </mxGeometry>
        </mxCell>
        <mxCell id="vQO8Fa0tWsfRLP2sTiy0-303" value="&lt;font style=&quot;font-size: 44px;&quot;&gt;-&lt;/font&gt;" style="text;html=1;strokeColor=none;fillColor=none;align=center;verticalAlign=middle;whiteSpace=wrap;rounded=0;container=0;" vertex="1" parent="vQO8Fa0tWsfRLP2sTiy0-335">
          <mxGeometry x="241.75870570235884" y="189.7994534065395" width="12.075250204725668" height="12.075243863323339" as="geometry" />
        </mxCell>
        <mxCell id="vQO8Fa0tWsfRLP2sTiy0-304" value="&lt;font style=&quot;font-size: 44px;&quot;&gt;+&lt;/font&gt;" style="text;html=1;strokeColor=none;fillColor=none;align=center;verticalAlign=middle;whiteSpace=wrap;rounded=0;container=0;" vertex="1" parent="vQO8Fa0tWsfRLP2sTiy0-335">
          <mxGeometry x="274.05999999999995" y="191.00697779287185" width="12.075250204725668" height="12.075243863323339" as="geometry" />
        </mxCell>
        <mxCell id="vQO8Fa0tWsfRLP2sTiy0-319" value="" style="endArrow=none;html=1;rounded=0;strokeWidth=5;" edge="1" parent="vQO8Fa0tWsfRLP2sTiy0-335">
          <mxGeometry width="50" height="50" relative="1" as="geometry">
            <mxPoint x="313.7079865140711" y="230.82999999999998" as="sourcePoint" />
            <mxPoint x="313.7079865140711" y="30.83" as="targetPoint" />
          </mxGeometry>
        </mxCell>
        <mxCell id="vQO8Fa0tWsfRLP2sTiy0-324" value="" style="endArrow=none;html=1;rounded=0;" edge="1" parent="vQO8Fa0tWsfRLP2sTiy0-335">
          <mxGeometry width="50" height="50" relative="1" as="geometry">
            <mxPoint x="13.70798651407108" y="230.82999999999998" as="sourcePoint" />
            <mxPoint x="313.7079865140711" y="230.82999999999998" as="targetPoint" />
          </mxGeometry>
        </mxCell>
        <mxCell id="vQO8Fa0tWsfRLP2sTiy0-325" value="" style="triangle;whiteSpace=wrap;html=1;direction=north;fillColor=#000000;container=0;" vertex="1" parent="vQO8Fa0tWsfRLP2sTiy0-335">
          <mxGeometry x="93.70798651407108" y="231.2" width="40" height="30" as="geometry" />
        </mxCell>
        <mxCell id="vQO8Fa0tWsfRLP2sTiy0-326" value="" style="triangle;whiteSpace=wrap;html=1;direction=north;fillColor=#000000;container=0;" vertex="1" parent="vQO8Fa0tWsfRLP2sTiy0-335">
          <mxGeometry x="193.70798651407108" y="231.2" width="40" height="30" as="geometry" />
        </mxCell>
        <mxCell id="vQO8Fa0tWsfRLP2sTiy0-306" value="" style="ellipse;whiteSpace=wrap;html=1;fillColor=none;container=0;" vertex="1" parent="vQO8Fa0tWsfRLP2sTiy0-335">
          <mxGeometry x="113.70798651407108" y="164.16333333333336" width="100.00000000000001" height="66.66666666666667" as="geometry" />
        </mxCell>
        <mxCell id="vQO8Fa0tWsfRLP2sTiy0-307" value="&lt;font style=&quot;font-size: 12px;&quot;&gt;-&lt;/font&gt;" style="ellipse;whiteSpace=wrap;html=1;container=0;" vertex="1" parent="vQO8Fa0tWsfRLP2sTiy0-335">
          <mxGeometry x="133.60791181416892" y="169.57341993547294" width="12.075250204725668" height="12.075243863323339" as="geometry" />
        </mxCell>
        <mxCell id="vQO8Fa0tWsfRLP2sTiy0-308" value="&lt;font style=&quot;font-size: 12px;&quot;&gt;+&lt;/font&gt;" style="ellipse;whiteSpace=wrap;html=1;container=0;" vertex="1" parent="vQO8Fa0tWsfRLP2sTiy0-335">
          <mxGeometry x="118.51384905826183" y="190.70509669628876" width="12.075250204725668" height="12.075243863323339" as="geometry" />
        </mxCell>
        <mxCell id="vQO8Fa0tWsfRLP2sTiy0-309" value="&lt;font style=&quot;font-size: 12px;&quot;&gt;-&lt;/font&gt;" style="ellipse;whiteSpace=wrap;html=1;container=0;" vertex="1" parent="vQO8Fa0tWsfRLP2sTiy0-335">
          <mxGeometry x="133.60791181416892" y="211.83677345710458" width="12.075250204725668" height="12.075243863323339" as="geometry" />
        </mxCell>
        <mxCell id="vQO8Fa0tWsfRLP2sTiy0-310" value="&lt;font style=&quot;font-size: 12px;&quot;&gt;+&lt;/font&gt;" style="ellipse;whiteSpace=wrap;html=1;container=0;" vertex="1" parent="vQO8Fa0tWsfRLP2sTiy0-335">
          <mxGeometry x="181.90891263307162" y="169.57341993547294" width="12.075250204725668" height="12.075243863323339" as="geometry" />
        </mxCell>
        <mxCell id="vQO8Fa0tWsfRLP2sTiy0-311" value="" style="endArrow=none;html=1;rounded=0;" edge="1" parent="vQO8Fa0tWsfRLP2sTiy0-335" source="vQO8Fa0tWsfRLP2sTiy0-310" target="vQO8Fa0tWsfRLP2sTiy0-309">
          <mxGeometry width="50" height="50" relative="1" as="geometry">
            <mxPoint x="181.90891263307162" y="172.59223090130376" as="sourcePoint" />
            <mxPoint x="145.68316201889456" y="220.8932063545971" as="targetPoint" />
          </mxGeometry>
        </mxCell>
        <mxCell id="vQO8Fa0tWsfRLP2sTiy0-312" value="&lt;font style=&quot;font-size: 12px;&quot;&gt;+&lt;/font&gt;" style="ellipse;whiteSpace=wrap;html=1;container=0;" vertex="1" parent="vQO8Fa0tWsfRLP2sTiy0-335">
          <mxGeometry x="181.90891263307162" y="211.83677345710458" width="12.075250204725668" height="12.075243863323339" as="geometry" />
        </mxCell>
        <mxCell id="vQO8Fa0tWsfRLP2sTiy0-313" value="" style="endArrow=none;html=1;rounded=0;" edge="1" parent="vQO8Fa0tWsfRLP2sTiy0-335" source="vQO8Fa0tWsfRLP2sTiy0-312" target="vQO8Fa0tWsfRLP2sTiy0-307">
          <mxGeometry width="50" height="50" relative="1" as="geometry">
            <mxPoint x="181.90891263307162" y="220.8932063545971" as="sourcePoint" />
            <mxPoint x="145.68316201889456" y="172.59223090130376" as="targetPoint" />
          </mxGeometry>
        </mxCell>
        <mxCell id="vQO8Fa0tWsfRLP2sTiy0-314" value="" style="endArrow=none;html=1;rounded=0;" edge="1" parent="vQO8Fa0tWsfRLP2sTiy0-335" target="vQO8Fa0tWsfRLP2sTiy0-315">
          <mxGeometry width="50" height="50" relative="1" as="geometry">
            <mxPoint x="193.98416283779738" y="196.7427186279504" as="sourcePoint" />
            <mxPoint x="133.60791181416892" y="196.7427186279504" as="targetPoint" />
          </mxGeometry>
        </mxCell>
        <mxCell id="vQO8Fa0tWsfRLP2sTiy0-315" value="&lt;font style=&quot;font-size: 12px;&quot;&gt;-&lt;/font&gt;" style="ellipse;whiteSpace=wrap;html=1;container=0;" vertex="1" parent="vQO8Fa0tWsfRLP2sTiy0-335">
          <mxGeometry x="197.0029753889787" y="190.70509669628876" width="12.075250204725668" height="12.075243863323339" as="geometry" />
        </mxCell>
        <mxCell id="vQO8Fa0tWsfRLP2sTiy0-316" value="" style="endArrow=none;html=1;rounded=0;entryX=1;entryY=0.5;entryDx=0;entryDy=0;" edge="1" parent="vQO8Fa0tWsfRLP2sTiy0-335" source="vQO8Fa0tWsfRLP2sTiy0-315" target="vQO8Fa0tWsfRLP2sTiy0-308">
          <mxGeometry width="50" height="50" relative="1" as="geometry">
            <mxPoint x="193.98416283779738" y="196.7427186279504" as="sourcePoint" />
            <mxPoint x="133.60791181416892" y="196.7427186279504" as="targetPoint" />
          </mxGeometry>
        </mxCell>
        <mxCell id="vQO8Fa0tWsfRLP2sTiy0-317" value="&lt;font style=&quot;font-size: 44px;&quot;&gt;-&lt;/font&gt;" style="text;html=1;strokeColor=none;fillColor=none;align=center;verticalAlign=middle;whiteSpace=wrap;rounded=0;container=0;" vertex="1" parent="vQO8Fa0tWsfRLP2sTiy0-335">
          <mxGeometry x="141.75870570235872" y="189.7994534065395" width="12.075250204725668" height="12.075243863323339" as="geometry" />
        </mxCell>
        <mxCell id="vQO8Fa0tWsfRLP2sTiy0-318" value="&lt;font style=&quot;font-size: 44px;&quot;&gt;+&lt;/font&gt;" style="text;html=1;strokeColor=none;fillColor=none;align=center;verticalAlign=middle;whiteSpace=wrap;rounded=0;container=0;" vertex="1" parent="vQO8Fa0tWsfRLP2sTiy0-335">
          <mxGeometry x="174.05999999999995" y="191.00697779287185" width="12.075250204725668" height="12.075243863323339" as="geometry" />
        </mxCell>
      </root>
    </mxGraphModel>
  </diagram>
</mxfile>
